<svg xmlns="http://www.w3.org/2000/svg" viewBox="0 0 640 420" fill="none">
  <defs>
    <linearGradient id="bg" x1="34" y1="12" x2="598" y2="411" gradientUnits="userSpaceOnUse">
      <stop stop-color="#26433f"/><stop offset=".45" stop-color="#202c2b"/><stop offset="1" stop-color="#111515"/>
    </linearGradient>
    <linearGradient id="robe" x1="199" y1="204" x2="466" y2="422" gradientUnits="userSpaceOnUse">
      <stop stop-color="#90b9a4"/><stop offset=".5" stop-color="#4b796e"/><stop offset="1" stop-color="#233d3b"/>
    </linearGradient>
    <linearGradient id="hair" x1="246" y1="38" x2="457" y2="209" gradientUnits="userSpaceOnUse">
      <stop stop-color="#e7d2a1"/><stop offset=".55" stop-color="#9da68b"/><stop offset="1" stop-color="#586f68"/>
    </linearGradient>
    <linearGradient id="blade" x1="144" y1="140" x2="554" y2="319" gradientUnits="userSpaceOnUse">
      <stop stop-color="#f4e3b2"/><stop offset=".55" stop-color="#a7d5c0"/><stop offset="1" stop-color="#77a9a0"/>
    </linearGradient>
  </defs>
  <path fill="url(#bg)" d="M0 0h640v420H0z"/>
  <circle cx="435" cy="109" r="72" fill="#c5d5ac" fill-opacity=".12"/>
  <circle cx="435" cy="109" r="49" stroke="#e5d5a9" stroke-opacity=".27" stroke-width="2"/>
  <path d="M0 289 167 65l-31 355H0zm640 17L502 75l8 345h130z" fill="#91c4ac" fill-opacity=".08"/>
  <path d="m58 358 120-218m389 236L441 130M33 288l155-120m420 139L463 162" stroke="#bdd7bd" stroke-opacity=".28" stroke-width="3"/>
  <path d="M191 420c22-104 58-178 129-219l85 17c63 45 95 109 119 202H191Z" fill="url(#robe)" stroke="#c6d4af" stroke-width="3"/>
  <path d="m280 214 77-38 53 30-26 57-83 9-43-30 22-28Z" fill="#cba886"/>
  <path d="m256 94 28-56 46 17 42-22 52 27 41 57-16 67-52 70-80-17-60-56-18-87Z" fill="url(#hair)"/>
  <path d="m279 117 44 21 62-16 44 30-19 62-58 50-64-33-29-62 20-52Z" fill="#dfbd9b"/>
  <path d="m263 102-45 54 22-101 54-28-31 75Zm93-22 28-49 26 70-27 32-27-53Zm61 23 57-22-33 89-39 23 15-90Z" fill="#e9d9b6"/>
  <path d="m292 146 35 2m41-2 34-8" stroke="#4d6157" stroke-linecap="round" stroke-width="6"/>
  <path d="m333 203 20 7 21-14" stroke="#956d59" stroke-linecap="round" stroke-width="4"/>
  <path d="m274 274 63 27 28 119h-88l-39-82 36-64Zm117-5 54 24 37 127h-86l-28-102 23-49Z" fill="#456d64" stroke="#d4c99d" stroke-width="4"/>
  <path d="m254 303-104 94m169-65 54 66m48-100 123 94" stroke="#e0cc9b" stroke-width="7"/>
  <path d="m144 396 278-244q18-16 36 3t0 35L177 408l-33-12Z" fill="url(#blade)" stroke="#e7e1c1" stroke-width="3"/>
  <path d="m268 307-22-30m59-17 18 23m40-72 18 23" stroke="#f3e4bd" stroke-width="4"/>
  <path d="m115 238 19-45 19 45 45 19-45 18-19 46-19-46-45-18 45-19Zm404-97 12-30 12 30 31 12-31 12-12 31-12-31-31-12 31-12Z" fill="#e7d69d" fill-opacity=".8"/>
  <path d="M25 26h42M25 26v42M615 26h-42m42 0v42M25 394h42m-42 0v-42m590 42h-42m42 0v-42" stroke="#c8deca" stroke-opacity=".58" stroke-width="2"/>
</svg>
